<svg width="49" height="49" viewBox="0 0 49 49" fill="none" xmlns="http://www.w3.org/2000/svg">
<g clip-path="url(#clip0_86_185)">
<path d="M46.5492 0H2.44922C1.05333 0.0444153 -0.042931 1.21084 -0.000777071 2.6068V46.3932C-0.042931 47.7892 1.05333 48.9556 2.44922 49H46.5492C47.9451 48.9556 49.0414 47.7892 48.9992 46.3932V2.6068C49.0414 1.21084 47.9451 0.0444153 46.5492 0ZM2.44922 1.63333H46.5492C47.0383 1.68653 47.3985 2.11589 47.3659 2.6068V6.53333H1.63256V2.6068C1.59991 2.11589 1.96011 1.68653 2.44922 1.63333ZM46.5492 47.3667H2.44922C1.96011 47.3135 1.59991 46.8841 1.63256 46.3932V8.16667H47.3659V46.3932C47.4047 46.8861 47.0414 47.3192 46.5492 47.3667Z" fill="white"/>
<path d="M4.08229 4.89994C4.53332 4.89994 4.89896 4.5343 4.89896 4.08327C4.89896 3.63224 4.53332 3.2666 4.08229 3.2666C3.63126 3.2666 3.26562 3.63224 3.26562 4.08327C3.26562 4.5343 3.63126 4.89994 4.08229 4.89994Z" fill="#EB3F57"/>
<path d="M7.34987 4.89994C7.8009 4.89994 8.16654 4.5343 8.16654 4.08327C8.16654 3.63224 7.8009 3.2666 7.34987 3.2666C6.89884 3.2666 6.5332 3.63224 6.5332 4.08327C6.5332 4.5343 6.89884 4.89994 7.34987 4.89994Z" fill="#EB3F57"/>
<path d="M10.6155 4.89994C11.0665 4.89994 11.4322 4.5343 11.4322 4.08327C11.4322 3.63224 11.0665 3.2666 10.6155 3.2666C10.1645 3.2666 9.79883 3.63224 9.79883 4.08327C9.79883 4.5343 10.1645 4.89994 10.6155 4.89994Z" fill="#EB3F57"/>
<path d="M39.1995 4.89994H44.9161C45.3672 4.89994 45.7328 4.5343 45.7328 4.08327C45.7328 3.63224 45.3672 3.2666 44.9161 3.2666H39.1995C38.7484 3.2666 38.3828 3.63224 38.3828 4.08327C38.3828 4.5343 38.7484 4.89994 39.1995 4.89994Z" fill="#EB3F57"/>
<mask id="path-6-inside-1_86_185" fill="white">
<path d="M14.7004 18.7834C15.6025 18.7834 16.3337 18.0521 16.3337 17.15V11.4334C16.3337 10.5313 15.6025 9.80005 14.7004 9.80005H6.53372C5.63166 9.80005 4.90039 10.5313 4.90039 11.4334V17.15C4.90039 18.0521 5.63166 18.7834 6.53372 18.7834H14.7004ZM6.53372 11.4334H14.7004V17.15H6.53372V11.4334Z"/>
</mask>
<path d="M14.7004 18.7834C15.6025 18.7834 16.3337 18.0521 16.3337 17.15V11.4334C16.3337 10.5313 15.6025 9.80005 14.7004 9.80005H6.53372C5.63166 9.80005 4.90039 10.5313 4.90039 11.4334V17.15C4.90039 18.0521 5.63166 18.7834 6.53372 18.7834H14.7004ZM6.53372 11.4334H14.7004V17.15H6.53372V11.4334Z" fill="white"/>
<path d="M6.53372 11.4334V2.90005H-1.99961V11.4334H6.53372ZM14.7004 11.4334H23.2337V2.90005H14.7004V11.4334ZM14.7004 17.15V25.6834H23.2337V17.15H14.7004ZM6.53372 17.15H-1.99961V25.6834H6.53372V17.15ZM14.7004 27.3167C20.3153 27.3167 24.8671 22.7649 24.8671 17.15H7.80039C7.80039 13.3393 10.8896 10.25 14.7004 10.25V27.3167ZM24.8671 17.15V11.4334H7.80039V17.15H24.8671ZM24.8671 11.4334C24.8671 5.81849 20.3153 1.26672 14.7004 1.26672V18.3334C10.8896 18.3334 7.80039 15.2441 7.80039 11.4334H24.8671ZM14.7004 1.26672H6.53372V18.3334H14.7004V1.26672ZM6.53372 1.26672C0.91883 1.26672 -3.63294 5.81849 -3.63294 11.4334H13.4337C13.4337 15.2441 10.3445 18.3334 6.53372 18.3334V1.26672ZM-3.63294 11.4334V17.15H13.4337V11.4334H-3.63294ZM-3.63294 17.15C-3.63294 22.7649 0.91883 27.3167 6.53372 27.3167V10.25C10.3445 10.25 13.4337 13.3393 13.4337 17.15H-3.63294ZM6.53372 27.3167H14.7004V10.25H6.53372V27.3167ZM6.53372 19.9667H14.7004V2.90005H6.53372V19.9667ZM6.16706 11.4334V17.15H23.2337V11.4334H6.16706ZM14.7004 8.61671H6.53372V25.6834H14.7004V8.61671ZM15.0671 17.15V11.4334H-1.99961V17.15H15.0671Z" fill="#EB3F57" mask="url(#path-6-inside-1_86_185)"/>
<mask id="path-8-inside-2_86_185" fill="white">
<path d="M20.4165 18.7834H28.5832C29.4853 18.7834 30.2165 18.0521 30.2165 17.15V11.4334C30.2165 10.5313 29.4853 9.80005 28.5832 9.80005H20.4165C19.5145 9.80005 18.7832 10.5313 18.7832 11.4334V17.15C18.7832 18.0521 19.5145 18.7834 20.4165 18.7834ZM20.4165 11.4334H28.5832V17.15H20.4165V11.4334Z"/>
</mask>
<path d="M20.4165 18.7834H28.5832C29.4853 18.7834 30.2165 18.0521 30.2165 17.15V11.4334C30.2165 10.5313 29.4853 9.80005 28.5832 9.80005H20.4165C19.5145 9.80005 18.7832 10.5313 18.7832 11.4334V17.15C18.7832 18.0521 19.5145 18.7834 20.4165 18.7834ZM20.4165 11.4334H28.5832V17.15H20.4165V11.4334Z" fill="white"/>
<path d="M20.4165 11.4334V2.90005H11.8832V11.4334H20.4165ZM28.5832 11.4334H37.1165V2.90005H28.5832V11.4334ZM28.5832 17.15V25.6834H37.1165V17.15H28.5832ZM20.4165 17.15H11.8832V25.6834H20.4165V17.15ZM20.4165 27.3167H28.5832V10.25H20.4165V27.3167ZM28.5832 27.3167C34.1981 27.3167 38.7499 22.7649 38.7499 17.15H21.6832C21.6832 13.3393 24.7724 10.25 28.5832 10.25V27.3167ZM38.7499 17.15V11.4334H21.6832V17.15H38.7499ZM38.7499 11.4334C38.7499 5.81848 34.1981 1.26672 28.5832 1.26672V18.3334C24.7724 18.3334 21.6832 15.2442 21.6832 11.4334H38.7499ZM28.5832 1.26672H20.4165V18.3334H28.5832V1.26672ZM20.4165 1.26672C14.8016 1.26672 10.2499 5.81848 10.2499 11.4334H27.3165C27.3165 15.2442 24.2273 18.3334 20.4165 18.3334V1.26672ZM10.2499 11.4334V17.15H27.3165V11.4334H10.2499ZM10.2499 17.15C10.2499 22.7649 14.8016 27.3167 20.4165 27.3167V10.25C24.2273 10.25 27.3165 13.3393 27.3165 17.15H10.2499ZM20.4165 19.9667H28.5832V2.90005H20.4165V19.9667ZM20.0499 11.4334V17.15H37.1165V11.4334H20.0499ZM28.5832 8.61671H20.4165V25.6834H28.5832V8.61671ZM28.9499 17.15V11.4334H11.8832V17.15H28.9499Z" fill="#EB3F57" mask="url(#path-8-inside-2_86_185)"/>
<mask id="path-10-inside-3_86_185" fill="white">
<path d="M42.466 9.80005H34.2993C33.3973 9.80005 32.666 10.5313 32.666 11.4334V17.15C32.666 18.0521 33.3973 18.7834 34.2993 18.7834H42.466C43.3681 18.7834 44.0993 18.0521 44.0993 17.15V11.4334C44.0993 10.5313 43.3681 9.80005 42.466 9.80005ZM34.2993 17.15V11.4334H42.466V17.15H34.2993Z"/>
</mask>
<path d="M42.466 9.80005H34.2993C33.3973 9.80005 32.666 10.5313 32.666 11.4334V17.15C32.666 18.0521 33.3973 18.7834 34.2993 18.7834H42.466C43.3681 18.7834 44.0993 18.0521 44.0993 17.15V11.4334C44.0993 10.5313 43.3681 9.80005 42.466 9.80005ZM34.2993 17.15V11.4334H42.466V17.15H34.2993Z" fill="#EB3F57"/>
<path d="M34.2993 17.15H25.766V25.6834H34.2993V17.15ZM34.2993 11.4334V2.90005H25.766V11.4334H34.2993ZM42.466 11.4334H50.9993V2.90005H42.466V11.4334ZM42.466 17.15V25.6834H50.9993V17.15H42.466ZM42.466 1.26672H34.2993V18.3334H42.466V1.26672ZM34.2993 1.26672C28.6845 1.26672 24.1327 5.81849 24.1327 11.4334H41.1993C41.1993 15.2441 38.1101 18.3334 34.2993 18.3334V1.26672ZM24.1327 11.4334V17.15H41.1993V11.4334H24.1327ZM24.1327 17.15C24.1327 22.7649 28.6845 27.3167 34.2993 27.3167V10.25C38.1101 10.25 41.1993 13.3393 41.1993 17.15H24.1327ZM34.2993 27.3167H42.466V10.25H34.2993V27.3167ZM42.466 27.3167C48.0809 27.3167 52.6327 22.7649 52.6327 17.15H35.566C35.566 13.3393 38.6552 10.25 42.466 10.25V27.3167ZM52.6327 17.15V11.4334H35.566V17.15H52.6327ZM52.6327 11.4334C52.6327 5.81849 48.0809 1.26672 42.466 1.26672V18.3334C38.6552 18.3334 35.566 15.2441 35.566 11.4334H52.6327ZM42.8327 17.15V11.4334H25.766V17.15H42.8327ZM34.2993 19.9667H42.466V2.90005H34.2993V19.9667ZM33.9327 11.4334V17.15H50.9993V11.4334H33.9327ZM42.466 8.61671H34.2993V25.6834H42.466V8.61671Z" fill="#EB3F57" mask="url(#path-10-inside-3_86_185)"/>
<path d="M14.7001 20.4167H6.53346C6.08243 20.4167 5.7168 20.7824 5.7168 21.2334C5.7168 21.6844 6.08243 22.0501 6.53346 22.0501H14.7001C15.1512 22.0501 15.5168 21.6844 15.5168 21.2334C15.5168 20.7824 15.1512 20.4167 14.7001 20.4167Z" fill="white"/>
<path d="M14.7001 23.6833H6.53346C6.08243 23.6833 5.7168 24.049 5.7168 24.5C5.7168 24.951 6.08243 25.3167 6.53346 25.3167H14.7001C15.1512 25.3167 15.5168 24.951 15.5168 24.5C15.5168 24.049 15.1512 23.6833 14.7001 23.6833Z" fill="white"/>
<path d="M28.5829 20.4167H20.4163C19.9652 20.4167 19.5996 20.7824 19.5996 21.2334C19.5996 21.6844 19.9652 22.0501 20.4163 22.0501H28.5829C29.034 22.0501 29.3996 21.6844 29.3996 21.2334C29.3996 20.7824 29.034 20.4167 28.5829 20.4167Z" fill="white"/>
<path d="M28.5829 23.6833H20.4163C19.9652 23.6833 19.5996 24.049 19.5996 24.5C19.5996 24.951 19.9652 25.3167 20.4163 25.3167H28.5829C29.034 25.3167 29.3996 24.951 29.3996 24.5C29.3996 24.049 29.034 23.6833 28.5829 23.6833Z" fill="white"/>
<path d="M42.4677 20.4167H34.301C33.85 20.4167 33.4844 20.7824 33.4844 21.2334C33.4844 21.6844 33.85 22.0501 34.301 22.0501H42.4677C42.9187 22.0501 43.2844 21.6844 43.2844 21.2334C43.2844 20.7824 42.9187 20.4167 42.4677 20.4167Z" fill="white"/>
<path d="M37.5113 31.9766C37.499 31.9635 37.4949 31.9464 37.4827 31.9341C37.461 31.9178 37.4384 31.9028 37.4149 31.8892C30.0642 25.304 18.9361 25.304 11.5854 31.8892C11.5619 31.9028 11.5393 31.9178 11.5176 31.9341C11.5053 31.9464 11.5012 31.9635 11.489 31.9766C7.83186 35.287 5.73679 39.9838 5.7168 44.9167C5.7168 45.3677 6.08243 45.7333 6.53346 45.7333H42.4668C42.9178 45.7333 43.2835 45.3677 43.2835 44.9167C43.2635 39.9838 41.1684 35.287 37.5113 31.9766ZM26.7999 44.1H22.2004C22.5413 43.1215 23.464 42.4659 24.5001 42.4659C25.5363 42.4659 26.459 43.1215 26.7999 44.1ZM28.5018 44.1C28.2957 43.1174 27.7349 42.2452 26.9265 41.65L30.9575 33.0113C31.0863 32.7462 31.0622 32.4322 30.8945 32.1898C30.7268 31.9474 30.4415 31.8142 30.148 31.8413C29.8545 31.8683 29.5983 32.0514 29.4777 32.3204L25.4475 40.9558C25.1377 40.8776 24.8197 40.8365 24.5001 40.8333C22.5605 40.8358 20.8892 42.2001 20.4985 44.1H7.37136C7.59687 40.1568 9.28221 36.4389 12.099 33.6703L14.1227 35.694C14.4432 36.0035 14.9526 35.9991 15.2676 35.6841C15.5826 35.3691 15.587 34.8597 15.2775 34.5393L13.3118 32.5719C16.2496 30.1661 19.8895 28.7797 23.6835 28.6217V31.85C23.6835 32.301 24.0491 32.6667 24.5001 32.6667C24.9512 32.6667 25.3168 32.301 25.3168 31.85V28.6217C29.1107 28.7797 32.7506 30.1661 35.6885 32.5719L33.7211 34.5393C33.5088 34.7443 33.4237 35.048 33.4984 35.3335C33.5732 35.619 33.7961 35.842 34.0817 35.9167C34.3672 35.9915 34.6708 35.9063 34.8759 35.694L36.8996 33.6703C39.717 36.4386 41.403 40.1566 41.6289 44.1H28.5018Z" fill="#EB3F57"/>
<path d="M42.4677 23.6833H34.301C33.85 23.6833 33.4844 24.049 33.4844 24.5C33.4844 24.951 33.85 25.3167 34.301 25.3167H42.4677C42.9187 25.3167 43.2844 24.951 43.2844 24.5C43.2844 24.049 42.9187 23.6833 42.4677 23.6833Z" fill="white"/>
</g>
<defs>
<clipPath id="clip0_86_185">
<rect width="49" height="49" fill="white"/>
</clipPath>
</defs>
</svg>
