<svg width="54" height="54" viewBox="0 0 54 54" fill="none" xmlns="http://www.w3.org/2000/svg">
<g clip-path="url(#clip0_86_180)">
<path d="M30.4648 14.1305C31.222 14.1305 31.724 13.3557 31.4394 12.673C31.2506 12.212 30.7534 11.9428 30.2593 12.0423C29.7522 12.1452 29.4102 12.5859 29.4102 13.0759C29.4102 13.6401 29.8664 14.1305 30.4648 14.1305Z" fill="white"/>
<path d="M26.9985 30.4034C32.2695 30.4034 36.5577 26.1152 36.5577 20.8442C36.5577 18.6895 35.8198 16.5762 34.4801 14.8937C34.1174 14.4379 33.4537 14.3624 32.9981 14.7255C32.5424 15.0883 32.4671 15.7518 32.8299 16.2075C33.8887 17.5373 34.4483 19.1406 34.4483 20.8442C34.4483 24.952 31.1063 28.294 26.9985 28.294C22.8907 28.294 19.5488 24.952 19.5488 20.8442C19.5488 16.8847 22.6427 13.6172 26.5921 13.4053C26.8102 13.3936 27.0094 13.3164 27.1714 13.1938C27.9966 12.5696 27.5164 11.2446 26.4792 11.299C21.4101 11.5709 17.4395 15.7636 17.4395 20.8442C17.4393 26.1151 21.7276 30.4034 26.9985 30.4034Z" fill="#EB3F57"/>
<path d="M49.2243 7.3459H42.8871C42.5639 6.87097 42.3623 6.75338 41.0308 5.39747C39.607 3.97385 37.2901 3.97385 35.8663 5.39747L34.2542 7.00966C33.4199 6.57123 32.5493 6.21011 31.6515 5.9303V3.65186C31.6517 1.63825 30.0135 0 27.9998 0H25.9987C23.9851 0 22.3469 1.63825 22.3469 3.65186V5.9304C21.4493 6.21021 20.5785 6.57144 19.7443 7.00987L18.1321 5.39757C16.7083 3.97375 14.3916 3.97375 12.9677 5.39757C11.6584 6.73091 11.4352 6.87023 11.1115 7.346H4.77432C2.20531 7.346 0.115234 9.43597 0.115234 12.0051V36.7299C0.115234 39.2915 2.19793 41.389 4.77421 41.389H23.049L21.6661 46.3537H18.4964C16.5912 46.3537 15.0413 47.9037 15.0413 49.809V51.8906H11.1697C10.5872 51.8906 10.115 52.3629 10.115 52.9453C10.115 53.5277 10.5872 54 11.1697 54H42.8289C43.4113 54 43.8836 53.5277 43.8836 52.9453C43.8836 52.3629 43.4113 51.8906 42.8289 51.8906H38.9574V49.8089C38.9574 47.9037 37.4074 46.3536 35.5022 46.3536H32.3325L30.9495 41.3889H49.2244C51.7934 41.3889 53.8835 39.2989 53.8835 36.7298C53.8835 35.4182 53.8835 12.875 53.8835 12.005C53.8834 9.43597 51.7934 7.3459 49.2243 7.3459ZM49.2243 9.45527C50.6302 9.45527 51.774 10.5991 51.774 12.005V32.1057H43.5038C43.4569 31.2181 43.0915 30.3571 42.446 29.7114L40.8338 28.0993C41.2723 27.265 41.6334 26.3944 41.9132 25.4967C44.2178 25.4908 44.243 25.5106 44.5646 25.4778C46.4038 25.2905 47.8436 23.7327 47.8436 21.8448V19.8437C47.8436 17.83 46.2055 16.1919 44.1918 16.1919H41.9132C41.6334 15.2941 41.2722 14.4235 40.8338 13.5892L42.446 11.9771C43.1453 11.2778 43.5025 10.362 43.5166 9.45527H49.2243ZM13.0442 8.30419L14.4592 6.88911C15.0607 6.28773 16.0392 6.28773 16.6406 6.88911L18.817 9.06557C19.1581 9.40644 19.6873 9.47268 20.1021 9.22609C21.2146 8.56417 22.4121 8.06752 23.6614 7.74984C24.129 7.63109 24.4564 7.21016 24.4564 6.72775V3.65186C24.4564 2.80136 25.1483 2.10938 25.9988 2.10938H27.9999C28.8504 2.10938 29.5424 2.80136 29.5424 3.65186V6.72775C29.5424 7.21016 29.8698 7.63109 30.3373 7.74984C31.5867 8.06741 32.7842 8.56417 33.8967 9.22609C34.3112 9.47278 34.8404 9.40665 35.1818 9.06557L37.358 6.88911C37.9594 6.28794 38.9381 6.28773 39.5396 6.88911C40.9622 8.35903 41.2534 8.43202 41.3803 9.11545C41.4734 9.62698 41.3067 10.1331 40.9545 10.4855L38.7782 12.6618C38.437 13.003 38.3709 13.5323 38.6177 13.9471C39.1969 14.9205 39.6496 15.9589 39.9664 17.0404C40.0116 17.1949 40.0541 17.3502 40.0939 17.5064C40.2127 17.974 40.6336 18.3013 41.116 18.3013H44.1919C45.0424 18.3013 45.7344 18.9932 45.7344 19.8437V21.8448C45.7344 22.6953 45.0424 23.3873 44.1919 23.3873H41.116C40.6336 23.3873 40.2127 23.7146 40.0939 24.1822C39.7763 25.4316 39.2796 26.6291 38.6177 27.7416C38.6023 27.7675 38.588 27.7939 38.575 27.8205C38.3802 28.2216 38.4583 28.7067 38.7783 29.0267C40.7128 31.0865 41.2919 31.2359 41.3952 32.1057H12.6037C12.6434 31.7707 12.7939 31.4531 13.0441 31.2029L15.2205 29.0266C15.5617 28.6854 15.6278 28.1561 15.3811 27.7414C14.719 26.6287 14.2223 25.4313 13.905 24.1821C13.7862 23.7144 13.3652 23.3872 12.8828 23.3872H9.80686C8.95636 23.3872 8.26438 22.6952 8.26438 21.8447V19.8436C8.26438 18.9931 8.95636 18.3011 9.80686 18.3011H12.8829C13.3653 18.3011 13.7862 17.9738 13.9051 17.5062C14.2226 16.2567 14.7192 15.0594 15.3812 13.947C15.6269 13.534 15.5633 13.0045 15.2206 12.6617C13.0869 10.5025 13.0163 10.504 12.8406 10.2331C12.4484 9.63004 12.5266 8.82162 13.0442 8.30419ZM4.77432 9.45527H10.4821C10.4964 10.3733 10.8622 11.2866 11.5527 11.9771L13.1649 13.5892C12.7264 14.4235 12.3652 15.2943 12.0854 16.1919H9.80686C7.79325 16.1919 6.15501 17.83 6.15501 19.8437V21.8448C6.15501 23.8605 7.79526 25.4967 9.80686 25.4967H12.0854C12.3652 26.3942 12.7263 27.265 13.1649 28.0993L11.5527 29.7114C10.907 30.3571 10.5418 31.2181 10.4948 32.1057H2.22461V12.005C2.22461 10.5991 3.36842 9.45527 4.77432 9.45527ZM36.848 49.8089V51.8906H17.1507V49.8089C17.1507 49.0668 17.7544 48.463 18.4964 48.463H35.5022C36.2443 48.463 36.848 49.0668 36.848 49.8089ZM30.1428 46.3536H23.8557L25.2386 41.3889H28.7598L30.1428 46.3536ZM51.774 36.7298C51.774 38.1357 50.6302 39.2795 49.2243 39.2795C47.6501 39.2795 6.24297 39.2795 4.77421 39.2795C3.3642 39.2795 2.2245 38.1318 2.2245 36.7298V34.2151H51.7739L51.774 36.7298Z" fill="white"/>
</g>
<defs>
<clipPath id="clip0_86_180">
<rect width="54" height="54" fill="white"/>
</clipPath>
</defs>
</svg>
