<svg width="14" height="17" viewBox="0 0 14 17" fill="none" xmlns="http://www.w3.org/2000/svg">
<path d="M8.51335 10.4141C8.90398 10.0234 9.09929 9.55208 9.09929 9C9.09929 8.44792 8.90398 7.97656 8.51335 7.58594C8.12273 7.19531 7.65137 7 7.09929 7C6.54721 7 6.07585 7.19531 5.68523 7.58594C5.2946 7.97656 5.09929 8.44792 5.09929 9C5.09929 9.55208 5.2946 10.0234 5.68523 10.4141C6.07585 10.8047 6.54721 11 7.09929 11C7.65137 11 8.12273 10.8047 8.51335 10.4141ZM11.0993 9C11.0993 9.56771 11.0134 10.0339 10.8415 10.3984L7.99773 16.4453C7.9144 16.6172 7.7894 16.7526 7.62273 16.8516C7.46127 16.9505 7.28679 17 7.09929 17C6.91179 17 6.73471 16.9505 6.56804 16.8516C6.40658 16.7526 6.28679 16.6172 6.20867 16.4453L3.3571 10.3984C3.18523 10.0339 3.09929 9.56771 3.09929 9C3.09929 7.89583 3.48992 6.95312 4.27117 6.17187C5.05242 5.39062 5.99512 5 7.09929 5C8.20346 5 9.14617 5.39062 9.92742 6.17187C10.7087 6.95312 11.0993 7.89583 11.0993 9Z" fill="white"/>
</svg>
