<svg width="35" height="34" viewBox="0 0 35 34" fill="none" xmlns="http://www.w3.org/2000/svg">
<g clip-path="url(#clip0_86_518)">
<path d="M34.0632 3.4C34.3731 3.4 34.6243 3.14627 34.6243 2.83333V0.566667C34.6243 0.253727 34.3731 0 34.0632 0H1.52199C1.21215 0 0.960938 0.253727 0.960938 0.566667V2.83333C0.960938 3.14627 1.21215 3.4 1.52199 3.4H2.64411V22.6667H1.52199C1.21215 22.6667 0.960938 22.9204 0.960938 23.2333V25.5C0.960938 25.8129 1.21215 26.0667 1.52199 26.0667H15.4514L9.51211 33.0651C9.36966 33.233 9.33706 33.4693 9.42856 33.6702C9.52006 33.8711 9.71895 33.9997 9.93784 34H12.1821C12.3459 34 12.5012 33.9278 12.6078 33.8022L16.1095 29.6781V33.4333C16.1095 33.7463 16.3607 34 16.6705 34H18.9147C19.2246 34 19.4758 33.7463 19.4758 33.4333V29.6781L22.9775 33.8022C23.084 33.9278 23.2394 34 23.4032 34H25.6474C25.8663 33.9997 26.0652 33.8711 26.1567 33.6702C26.2482 33.4693 26.2156 33.233 26.0731 33.0651L20.1338 26.0667H34.0632C34.3731 26.0667 34.6243 25.8129 34.6243 25.5V23.2333C34.6243 22.9204 34.3731 22.6667 34.0632 22.6667H32.9411V3.4H34.0632ZM2.08305 1.13333H33.5022V2.26667H2.08305V1.13333ZM11.924 32.8667H11.1575L16.1095 27.0301V27.9366L11.924 32.8667ZM18.3537 32.8667H17.2316V26.0667H18.3537V32.8667ZM23.6612 32.8667L19.4758 27.9366V27.0301L24.4278 32.8667H23.6612ZM33.5022 24.9333H2.08305V23.8H33.5022V24.9333ZM31.819 22.6667H3.76622V3.4H31.819V22.6667Z" fill="#EB3F57"/>
<path d="M9.37697 18.1334C9.37259 19.3124 10.2638 20.2979 11.4267 20.4C12.5896 20.5021 13.6361 19.6867 13.8331 18.5246C14.0303 17.3625 13.3126 16.2419 12.1823 15.9472V15.8667C12.1842 14.3026 13.4389 13.0353 14.9875 13.0334H20.5981C22.7659 13.0306 24.5227 11.2562 24.5255 9.06669V8.98618C25.6197 8.70091 26.3333 7.63813 26.1908 6.5059C26.0484 5.37367 25.0945 4.52478 23.9644 4.52478C22.8344 4.52478 21.8805 5.37367 21.738 6.5059C21.5956 7.63813 22.3092 8.70091 23.4034 8.98618V9.06669C23.4015 10.6308 22.1468 11.8981 20.5981 11.9H14.9875C12.8197 11.9028 11.0629 13.6772 11.0601 15.8667V15.9472C10.0723 16.2048 9.3808 17.103 9.37697 18.1334ZM22.8423 6.80003C22.8423 6.17415 23.3447 5.66669 23.9644 5.66669C24.5841 5.66669 25.0865 6.17415 25.0865 6.80003C25.0865 7.4259 24.5841 7.93336 23.9644 7.93336C23.3447 7.93336 22.8423 7.4259 22.8423 6.80003ZM11.6212 17C12.2409 17 12.7433 17.5075 12.7433 18.1334C12.7433 18.7592 12.2409 19.2667 11.6212 19.2667C11.0015 19.2667 10.4991 18.7592 10.4991 18.1334C10.4991 17.5075 11.0015 17 11.6212 17Z" fill="#EB3F57"/>
<path d="M20.8293 15.3975L20.036 16.1988L19.2426 15.3975L18.4492 16.1988L19.2426 17.0001L18.4492 17.8014L19.2426 18.6027L20.036 17.8014L20.8293 18.6027L21.6227 17.8014L20.8293 17.0001L21.6227 16.1988L20.8293 15.3975Z" fill="#EB3F57"/>
<path d="M25.7441 12.232L26.5375 13.0333L25.7441 13.8346L26.5375 14.6359L27.3309 13.8346L28.1242 14.6359L28.9176 13.8346L28.1242 13.0333L28.9176 12.232L28.1242 11.4307L27.3309 12.232L26.5375 11.4307L25.7441 12.232Z" fill="#EB3F57"/>
<path d="M9.04807 9.73071L8.25471 10.532L7.46134 9.73071L6.66797 10.532L7.46134 11.3333L6.66797 12.1346L7.46134 12.9359L8.25471 12.1346L9.04807 12.9359L9.84144 12.1346L9.04807 11.3333L9.84144 10.532L9.04807 9.73071Z" fill="#EB3F57"/>
<path d="M14.1938 9.5359L14.9871 8.7346L15.7805 9.5359L16.5739 8.7346L15.7805 7.93329L16.5739 7.13199L15.7805 6.33069L14.9871 7.13199L14.1938 6.33069L13.4004 7.13199L14.1938 7.93329L13.4004 8.7346L14.1938 9.5359Z" fill="#EB3F57"/>
<path d="M25.0859 18.1333H26.2081V19.2666H25.0859V18.1333Z" fill="#EB3F57"/>
<path d="M27.3301 18.1333H29.5743V19.2666H27.3301V18.1333Z" fill="#EB3F57"/>
<path d="M25.0859 19.8334H29.5744V20.9667H25.0859V19.8334Z" fill="#EB3F57"/>
<path d="M6.00977 4.53333H9.3761V5.66666H6.00977V4.53333Z" fill="#EB3F57"/>
<path d="M6.00977 6.2334H9.3761V7.36673H6.00977V6.2334Z" fill="#EB3F57"/>
</g>
<defs>
<clipPath id="clip0_86_518">
<rect width="33.6634" height="34" fill="white" transform="translate(0.960938)"/>
</clipPath>
</defs>
</svg>
