<svg width="58" height="58" viewBox="0 0 58 58" fill="none" xmlns="http://www.w3.org/2000/svg">
<path d="M53.4688 1.8125H4.53125C3.81085 1.81465 3.12058 2.10178 2.61118 2.61118C2.10178 3.12058 1.81465 3.81085 1.8125 4.53125V38.0625C1.81465 38.7829 2.10178 39.4732 2.61118 39.9826C3.12058 40.492 3.81085 40.7791 4.53125 40.7812H13.9653C14 40.8993 13.987 41.0262 13.9291 41.1347L11.6453 44.9319C11.3332 45.4531 11.2046 46.0639 11.2802 46.6667C11.3558 47.2696 11.6311 47.8297 12.0622 48.2578L15.1797 51.3753C15.6078 51.8064 16.1679 52.0817 16.7708 52.1573C17.3736 52.2328 17.9844 52.1043 18.5056 51.7922L22.3028 49.5084C22.3754 49.4708 22.4556 49.4503 22.5374 49.4488C22.6191 49.4472 22.7001 49.4645 22.7741 49.4994C22.8478 49.5278 22.9139 49.5728 22.9674 49.631C23.0208 49.6891 23.0601 49.7588 23.0822 49.8347L24.1516 54.1303C24.299 54.7181 24.6386 55.2397 25.1164 55.6124C25.5942 55.9851 26.1828 56.1875 26.7887 56.1875H31.2112C31.8172 56.1875 32.4058 55.9851 32.8836 55.6124C33.3614 55.2397 33.701 54.7181 33.8484 54.1303L34.9178 49.8347C34.9418 49.7559 34.9837 49.6838 35.0403 49.624C35.097 49.5643 35.1667 49.5185 35.2441 49.4903C35.3161 49.4592 35.3943 49.4447 35.4727 49.4478C35.5511 49.4509 35.6278 49.4717 35.6972 49.5084L39.4944 51.7922C40.0162 52.1023 40.6265 52.2296 41.2288 52.1542C41.8312 52.0787 42.3911 51.8046 42.8203 51.3753L45.9378 48.2578C46.3689 47.8297 46.6442 47.2696 46.7198 46.6667C46.7953 46.0639 46.6668 45.4531 46.3547 44.9319L44.0709 41.1347C44.0174 41.0249 44.0046 40.8996 44.0347 40.7812H53.4688C54.1891 40.7791 54.8794 40.492 55.3888 39.9826C55.8982 39.4732 56.1853 38.7829 56.1875 38.0625V4.53125C56.1853 3.81085 55.8982 3.12058 55.3888 2.61118C54.8794 2.10178 54.1891 1.81465 53.4688 1.8125ZM48.9375 36.6487C48.9373 36.8511 48.8694 37.0477 48.7446 37.207C48.6198 37.3663 48.4452 37.4792 48.2487 37.5278L43.9531 38.5972C43.5999 38.6912 43.2734 38.8663 42.9997 39.1086C42.7259 39.3508 42.5125 39.6536 42.3762 39.9928C42.2376 40.3262 42.1785 40.6874 42.2036 41.0476C42.2288 41.4078 42.3375 41.7572 42.5212 42.0681L44.7959 45.8653C44.902 46.0377 44.9463 46.241 44.9216 46.4419C44.8969 46.6428 44.8046 46.8294 44.66 46.9709L41.5334 50.0975C41.3919 50.2421 41.2053 50.3344 41.0044 50.3591C40.8035 50.3838 40.6002 50.3395 40.4278 50.2334L36.6306 47.9587C36.3164 47.7773 35.9648 47.6705 35.6028 47.6465C35.2408 47.6226 34.8781 47.682 34.5427 47.8204C34.2074 47.9587 33.9082 48.1723 33.6684 48.4445C33.4286 48.7168 33.2546 49.0405 33.1597 49.3906L32.0903 53.6862C32.0417 53.8827 31.9288 54.0573 31.7695 54.1821C31.6102 54.3069 31.4136 54.3748 31.2112 54.375H26.7887C26.5864 54.3748 26.3898 54.3069 26.2305 54.1821C26.0712 54.0573 25.9583 53.8827 25.9097 53.6862L24.8403 49.3906C24.7463 49.0374 24.5712 48.7109 24.3289 48.4372C24.0867 48.1634 23.7839 47.95 23.4447 47.8137C23.1571 47.6955 22.8494 47.634 22.5384 47.6325C22.1261 47.6312 21.7215 47.7441 21.3694 47.9587L17.5722 50.2334C17.3998 50.3395 17.1965 50.3838 16.9956 50.3591C16.7947 50.3344 16.6081 50.2421 16.4666 50.0975L13.34 46.9709C13.1953 46.8294 13.1031 46.6428 13.0784 46.4419C13.0537 46.241 13.098 46.0377 13.2041 45.8653L15.4787 42.0681C15.6601 41.7539 15.767 41.4023 15.791 41.0403C15.8149 40.6783 15.7555 40.3156 15.6171 39.9802C15.4788 39.6449 15.2652 39.3457 14.993 39.1059C14.7207 38.8661 14.397 38.6921 14.0469 38.5972L9.75125 37.5278C9.55477 37.4792 9.38021 37.3663 9.25538 37.207C9.13056 37.0477 9.06266 36.8511 9.0625 36.6487V32.2263C9.06266 32.0239 9.13056 31.8273 9.25538 31.668C9.38021 31.5087 9.55477 31.3958 9.75125 31.3472L14.0469 30.2778C14.4001 30.1838 14.7266 30.0087 15.0003 29.7664C15.2741 29.5242 15.4875 29.2214 15.6237 28.8822C15.7624 28.5488 15.8215 28.1876 15.7964 27.8274C15.7712 27.4672 15.6625 27.1178 15.4787 26.8069L13.2041 23.0097C13.098 22.8373 13.0537 22.634 13.0784 22.4331C13.1031 22.2322 13.1953 22.0456 13.34 21.9041L16.4666 18.7775C16.6081 18.6328 16.7947 18.5406 16.9956 18.5159C17.1965 18.4912 17.3998 18.5355 17.5722 18.6416L21.3694 20.9163C21.6836 21.0977 22.0352 21.2045 22.3972 21.2285C22.7592 21.2524 23.1219 21.193 23.4573 21.0546C23.7926 20.9163 24.0918 20.7027 24.3316 20.4305C24.5714 20.1582 24.7454 19.8345 24.8403 19.4844L25.9097 15.1888C25.9583 14.9923 26.0712 14.8177 26.2305 14.6929C26.3898 14.5681 26.5864 14.5002 26.7887 14.5H31.2112C31.4136 14.5002 31.6102 14.5681 31.7695 14.6929C31.9288 14.8177 32.0417 14.9923 32.0903 15.1888L33.1597 19.4844C33.2537 19.8376 33.4288 20.1641 33.6711 20.4378C33.9133 20.7116 34.2161 20.925 34.5553 21.0612C34.8887 21.1999 35.2499 21.259 35.6101 21.2339C35.9703 21.2087 36.3197 21.1 36.6306 20.9163L40.4278 18.6416C40.6009 18.5379 40.8037 18.495 41.004 18.5196C41.2043 18.5442 41.3906 18.635 41.5334 18.7775L44.66 21.9041C44.8046 22.0456 44.8969 22.2322 44.9216 22.4331C44.9463 22.634 44.902 22.8373 44.7959 23.0097L42.5212 26.8069C42.3398 27.1211 42.233 27.4727 42.209 27.8347C42.1851 28.1967 42.2445 28.5594 42.3829 28.8948C42.5212 29.2301 42.7348 29.5293 43.007 29.7691C43.2793 30.0089 43.603 30.1829 43.9531 30.2778L48.2487 31.3472C48.4452 31.3958 48.6198 31.5087 48.7446 31.668C48.8694 31.8273 48.9373 32.0239 48.9375 32.2263V36.6487ZM54.375 38.0625C54.375 38.3029 54.2795 38.5334 54.1096 38.7033C53.9396 38.8733 53.7091 38.9688 53.4688 38.9688H49.4359C49.8364 38.7281 50.1678 38.3881 50.3981 37.9816C50.6283 37.5751 50.7495 37.1159 50.75 36.6487V32.2263C50.75 31.6203 50.5476 31.0317 50.1749 30.5539C49.8022 30.0761 49.2806 29.7365 48.6928 29.5891L44.3972 28.5197C44.2699 28.4851 44.16 28.4044 44.0891 28.2931C44.08 28.2659 44.0619 28.2206 44.0528 28.1934C44.0217 28.1214 44.0072 28.0432 44.0103 27.9648C44.0134 27.8864 44.0342 27.8097 44.0709 27.7403L46.3547 23.9431C46.6668 23.4219 46.7953 22.8111 46.7198 22.2083C46.6442 21.6054 46.3689 21.0453 45.9378 20.6172L42.8203 17.4997C42.3922 17.0686 41.8321 16.7933 41.2292 16.7177C40.6264 16.6421 40.0156 16.7707 39.4944 17.0828L35.6972 19.3666C35.6246 19.4042 35.5444 19.4247 35.4626 19.4262C35.3809 19.4278 35.2999 19.4105 35.2259 19.3756C35.1522 19.3472 35.0861 19.3022 35.0326 19.244C34.9792 19.1859 34.9399 19.1162 34.9178 19.0403L33.8484 14.7447C33.701 14.1569 33.3614 13.6353 32.8836 13.2626C32.4058 12.8899 31.8172 12.6875 31.2112 12.6875H26.7887C26.1828 12.6875 25.5942 12.8899 25.1164 13.2626C24.6386 13.6353 24.299 14.1569 24.1516 14.7447L23.0822 19.0403C23.0582 19.1191 23.0163 19.1912 22.9597 19.251C22.903 19.3107 22.8333 19.3565 22.7559 19.3847C22.6839 19.4158 22.6057 19.4303 22.5273 19.4272C22.4489 19.4241 22.3722 19.4033 22.3028 19.3666L18.5056 17.0828C17.9838 16.7727 17.3735 16.6454 16.7712 16.7208C16.1688 16.7963 15.6089 17.0704 15.1797 17.4997L12.0622 20.6172C11.6311 21.0453 11.3558 21.6054 11.2802 22.2083C11.2046 22.8111 11.3332 23.4219 11.6453 23.9431L13.9291 27.7403C13.9667 27.8129 13.9872 27.8931 13.9887 27.9749C13.9903 28.0566 13.973 28.1376 13.9381 28.2116C13.9097 28.2853 13.8647 28.3514 13.8065 28.4049C13.7484 28.4583 13.6787 28.4976 13.6028 28.5197L9.30719 29.5891C8.71944 29.7365 8.19779 30.0761 7.82508 30.5539C7.45237 31.0317 7.24997 31.6203 7.25 32.2263V36.6487C7.25045 37.1159 7.37169 37.5751 7.60193 37.9816C7.83218 38.3881 8.16361 38.7281 8.56406 38.9688H4.53125C4.2909 38.9688 4.06039 38.8733 3.89043 38.7033C3.72048 38.5334 3.625 38.3029 3.625 38.0625V10.875H54.375V38.0625ZM54.375 9.0625H3.625V4.53125C3.625 4.2909 3.72048 4.06039 3.89043 3.89043C4.06039 3.72048 4.2909 3.625 4.53125 3.625H53.4688C53.7091 3.625 53.9396 3.72048 54.1096 3.89043C54.2795 4.06039 54.375 4.2909 54.375 4.53125V9.0625Z" fill="white"/>
<path d="M5.4375 5.4375H7.25V7.25H5.4375V5.4375Z" fill="#EB3F57"/>
<path d="M9.0625 5.4375H10.875V7.25H9.0625V5.4375Z" fill="#EB3F57"/>
<path d="M12.6875 5.4375H14.5V7.25H12.6875V5.4375Z" fill="#EB3F57"/>
<path d="M29 23.5625C26.8491 23.5625 24.7466 24.2003 22.9582 25.3953C21.1698 26.5902 19.7759 28.2887 18.9528 30.2758C18.1297 32.263 17.9144 34.4496 18.334 36.5591C18.7536 38.6686 19.7893 40.6064 21.3102 42.1273C22.8311 43.6482 24.7689 44.6839 26.8784 45.1035C28.9879 45.5232 31.1745 45.3078 33.1617 44.4847C35.1488 43.6616 36.8473 42.2677 38.0422 40.4793C39.2372 38.6909 39.875 36.5884 39.875 34.4375C39.8719 31.5542 38.7251 28.7899 36.6863 26.7512C34.6476 24.7124 31.8833 23.5656 29 23.5625ZM29 43.5C27.2076 43.5 25.4555 42.9685 23.9651 41.9727C22.4748 40.9769 21.3133 39.5615 20.6273 37.9056C19.9414 36.2496 19.762 34.4274 20.1116 32.6695C20.4613 30.9115 21.3244 29.2968 22.5918 28.0293C23.8593 26.7619 25.474 25.8988 27.232 25.5491C28.99 25.1995 30.8121 25.3789 32.4681 26.0648C34.124 26.7508 35.5394 27.9123 36.5352 29.4026C37.531 30.893 38.0625 32.6451 38.0625 34.4375C38.0599 36.8402 37.1042 39.1438 35.4052 40.8427C33.7063 42.5417 31.4027 43.4974 29 43.5Z" fill="#EB3F57"/>
<path d="M28.0938 33.5312H29.9062V35.3438H28.0938V33.5312Z" fill="#EB3F57"/>
<path d="M31.7188 33.5312H33.5312V35.3438H31.7188V33.5312Z" fill="white"/>
<path d="M24.4688 33.5312H26.2812V35.3438H24.4688V33.5312Z" fill="white"/>
</svg>
