<svg width="39" height="39" viewBox="0 0 39 39" fill="none" xmlns="http://www.w3.org/2000/svg">
<path d="M38.4194 5.90746C38.3877 5.79683 38.3271 5.69687 38.2439 5.61805C38.1608 5.53923 38.0581 5.48446 37.9468 5.45949L34.0477 4.5698L33.1668 0.631714C33.1418 0.519566 33.0874 0.416261 33.0094 0.332583C32.9313 0.248904 32.8325 0.18792 32.7231 0.155996C32.6138 0.124072 32.4979 0.122378 32.3877 0.151092C32.2775 0.179806 32.1769 0.237875 32.0965 0.319237L27.6121 4.84923C23.8173 2.53646 19.3157 1.70655 14.9566 2.5161C10.5976 3.32565 6.68264 5.71868 3.95066 9.24358C1.21868 12.7685 -0.141399 17.1814 0.127094 21.6497C0.395586 26.1179 2.27408 30.3323 5.40807 33.4977C8.54206 36.663 12.7148 38.5603 17.1388 38.8315C21.5628 39.1026 25.932 37.729 29.422 34.9697C32.912 32.2104 35.2814 28.2563 36.0829 23.8537C36.8844 19.451 36.0627 14.9043 33.7729 11.0716L38.2591 6.54049C38.3394 6.45908 38.3966 6.35741 38.4248 6.24608C38.453 6.13475 38.4512 6.01782 38.4194 5.90746ZM35.1089 20.5417C35.1084 24.2931 33.8822 27.9396 31.6205 30.9153C29.3587 33.891 26.1879 36.0297 22.5999 36.9997C19.0119 37.9696 15.2073 37.7165 11.7763 36.2797C8.34521 34.8429 5.47951 32.3027 3.6237 29.0531C1.7679 25.8034 1.02574 22.0261 1.51235 18.307C1.99895 14.5879 3.68713 11.135 6.31499 8.48377C8.94285 5.83259 12.3635 4.13138 16.0463 3.64405C19.7291 3.15672 23.4682 3.91052 26.6836 5.7885L24.6241 7.86861C24.6064 7.88896 24.59 7.91042 24.575 7.93287C21.6012 6.40375 18.1849 5.99608 14.9402 6.78313C11.6955 7.57018 8.8351 9.50034 6.87319 12.2267C4.91128 14.953 3.97652 18.2967 4.23691 21.6568C4.49731 25.0169 5.93579 28.173 8.29379 30.5578C10.6518 32.9426 13.7747 34.3998 17.1011 34.6674C20.4276 34.9349 23.7395 33.9954 26.4415 32.0176C29.1435 30.0397 31.0584 27.1534 31.8421 23.8773C32.6258 20.6012 32.2268 17.1502 30.7169 14.1446C30.7402 14.1279 30.7625 14.1096 30.7834 14.0899L32.8429 12.0098C34.3302 14.6021 35.112 17.5456 35.1089 20.5417ZM29.207 14.0374C30.7695 16.7313 31.3064 19.9079 30.7173 22.9728C30.1282 26.0377 28.4535 28.7807 26.0066 30.6886C23.5597 32.5964 20.5083 33.5382 17.4235 33.3378C14.3386 33.1374 11.4319 31.8085 9.24711 29.5998C7.06236 27.391 5.7494 24.4539 5.55394 21.3381C5.35848 18.2222 6.29393 15.1412 8.18521 12.6717C10.0765 10.2021 12.794 8.51328 15.8291 7.92126C18.8642 7.32923 22.0089 7.87458 24.6746 9.45523L25.3446 12.4529L24.7019 13.1021C22.7851 11.4021 20.2889 10.5216 17.7409 10.6467C15.193 10.7719 12.7932 11.8929 11.0488 13.7728C9.30436 15.6527 8.35216 18.144 8.39348 20.7201C8.4348 23.2962 9.46641 25.7551 11.2702 27.5769C13.074 29.3988 15.5085 30.4407 18.0591 30.4824C20.6097 30.5241 23.0764 29.5624 24.9377 27.8006C26.7989 26.0387 27.9088 23.6149 28.0328 21.0415C28.1567 18.4681 27.2849 15.9469 25.6017 14.0109L26.2444 13.3617L29.207 14.0374ZM20.9715 20.5417C20.9737 21.156 20.774 21.7536 20.4036 22.2409C20.0333 22.7281 19.5132 23.0774 18.9251 23.2338C18.337 23.3903 17.714 23.3452 17.1541 23.1055C16.5941 22.8658 16.1288 22.4451 15.8311 21.9094C15.5334 21.3737 15.4202 20.7534 15.5093 20.1458C15.5984 19.5381 15.8847 18.9775 16.3233 18.552C16.7619 18.1264 17.3279 17.86 17.9326 17.7944C18.5374 17.7289 19.1465 17.868 19.6645 18.1899L17.7857 20.0875C17.7249 20.1468 17.6765 20.2177 17.6431 20.2961C17.6098 20.3745 17.5923 20.4588 17.5916 20.5442C17.5908 20.6295 17.607 20.7141 17.639 20.7931C17.671 20.872 17.7182 20.9438 17.778 21.0041C17.8377 21.0644 17.9088 21.1121 17.987 21.1444C18.0652 21.1767 18.1489 21.1929 18.2334 21.1922C18.3179 21.1914 18.4014 21.1737 18.479 21.14C18.5566 21.1063 18.6268 21.0573 18.6855 20.9959L20.5643 19.0983C20.8303 19.5318 20.9713 20.0317 20.9715 20.5417ZM20.5803 17.2649C19.7606 16.6653 18.7473 16.3996 17.7423 16.5208C16.7373 16.642 15.8144 17.1412 15.1576 17.9189C14.5007 18.6967 14.1581 19.6958 14.1981 20.7173C14.238 21.7388 14.6576 22.7075 15.3731 23.4305C16.0887 24.1535 17.0476 24.5776 18.059 24.6184C19.0703 24.6591 20.0597 24.3135 20.83 23.6504C21.6003 22.9873 22.095 22.0554 22.2154 21.0404C22.3358 20.0254 22.0731 19.0019 21.4797 18.1737L24.7001 14.9212C26.143 16.6143 26.8799 18.8064 26.756 21.0368C26.632 23.2673 25.6568 25.3623 24.0354 26.8817C22.4139 28.4011 20.2725 29.2265 18.061 29.1845C15.8496 29.1424 13.7404 28.2362 12.1767 26.6562C10.6131 25.0763 9.71664 22.9456 9.6759 20.7121C9.63516 18.4785 10.4533 16.3159 11.9583 14.6789C13.4633 13.0418 15.538 12.0578 17.7464 11.9335C19.9548 11.8092 22.1249 12.5544 23.8006 14.0124L20.5803 17.2649ZM32.5208 10.5175L30.133 12.9288L29.7749 12.8473L29.7611 12.844L26.5745 12.1195L25.7715 8.52735L32.1816 2.05199L32.8967 5.24873C32.9232 5.36724 32.9824 5.47574 33.0675 5.56165C33.1526 5.64756 33.26 5.70737 33.3773 5.73415L36.5424 6.45641L32.5208 10.5175Z" fill="#EB3F57"/>
</svg>
