<svg width="19" height="19" viewBox="0 0 19 19" fill="none" xmlns="http://www.w3.org/2000/svg">
<path d="M16.0312 1.5625H2.96875C1.9668 1.5625 1.1875 2.37891 1.1875 3.34375V16.4062C1.1875 17.4082 1.9668 18.1875 2.96875 18.1875H8.05273V12.5469H5.71484V9.875H8.05273V7.87109C8.05273 5.57031 9.42578 4.27148 11.5039 4.27148C12.543 4.27148 13.582 4.45703 13.582 4.45703V6.7207H12.4316C11.2812 6.7207 10.9102 7.42578 10.9102 8.16797V9.875H13.4707L13.0625 12.5469H10.9102V18.1875H16.0312C16.9961 18.1875 17.8125 17.4082 17.8125 16.4062V3.34375C17.8125 2.37891 16.9961 1.5625 16.0312 1.5625Z" fill="white"/>
</svg>
